<?xml version="1.0" encoding="UTF-8" ?>
<!DOCTYPE svg PUBLIC "-//W3C//DTD SVG 1.1//EN" "http://www.w3.org/Graphics/SVG/1.1/DTD/svg11.dtd">
<svg width="22pt" height="22pt" viewBox="0 0 22 22" version="1.1" xmlns="http://www.w3.org/2000/svg">
<g id="#ffffffff">
<path fill="#ffffff" opacity="1.00" d=" M 8.54 0.73 C 10.18 0.73 11.82 0.73 13.46 0.73 C 13.47 3.49 13.47 6.24 13.46 8.99 C 16.13 9.00 18.79 9.00 21.45 9.00 C 21.47 10.58 21.49 12.17 21.51 13.75 C 18.83 13.73 16.15 13.73 13.48 13.74 C 13.46 16.49 13.46 19.25 13.47 22.00 L 8.53 22.00 C 8.54 19.25 8.54 16.49 8.52 13.74 C 5.85 13.73 3.17 13.73 0.49 13.75 C 0.51 12.17 0.53 10.58 0.55 9.00 C 3.21 9.00 5.87 9.00 8.54 8.99 C 8.53 6.24 8.53 3.49 8.54 0.73 Z" />
</g>
</svg>
