<svg id="Layer_1" data-name="Layer 1" xmlns="http://www.w3.org/2000/svg" viewBox="0 0 1519 329.62"><defs><style>.cls-1{fill:#fff;}</style></defs><title>WEHELP</title><path class="cls-1" d="M.5,0H440.34q-10.875,110.46-21.77,220.91-93.375-9.225-186.76-18.43Q240.8,111,249.83,19.5q-56.79-5.6-113.6-11.2-9.06,91.5-18.06,183.01Q59.34,185.505.5,179.71Z" transform="translate(-0.5)"/><path class="cls-1" d="M539.3,0H874.67q-3.39,34.11-6.74,68.21-74.49-7.335-148.97-14.68-2.715,27.18-5.37,54.37,84.255,8.3,168.49,16.61-6.93,70.515-13.89,141.02-175.8-17.37-351.62-34.68Q527.865,115.425,539.3,0Z" transform="translate(-0.5)"/><path class="cls-1" d="M970.94,0H1159.9q-6.045,61.335-12.09,122.66,90.75,8.97,181.5,17.9-8.31,84.315-16.63,168.62-184.305-18.135-368.6-36.32Q957.43,136.42,970.94,0Z" transform="translate(-0.5)"/><path class="cls-1" d="M1400.58,0H1519.5V329.62q-74.97-7.335-149.93-14.77Q1385.005,157.41,1400.58,0Z" transform="translate(-0.5)"/></svg>