<svg xmlns="http://www.w3.org/2000/svg" viewBox="0 0 1446.88 394.555"><defs><style>.a{fill:#fff;}</style></defs><title>Salt-logo-big</title><path class="a" d="M821.44,0h59V177.06h39.07q-.015,8.5,0,17H819.69v-17h39.37V17H821.44Z"/><path class="a" d="M469.62.01c5.88,2.98,11.71,6.06,17.58,9.05q-45.795,98.64-91.62,197.26c-5.75-2.85-11.52-5.66-17.27-8.5Q423.955,98.91,469.62.01Z"/><path class="a" d="M995.73,25.09c8.72-1.29,17.39-3.06,26.16-4.03,1.28,1.35-.52,2.86-1.05,4.1a14.022,14.022,0,0,0-2.5,5.94c-1.2,9.86-2.36,19.72-3.56,29.59q22.17,0,44.35,0V77.94H1013.6c-1.03,19.36-2.47,38.69-3.14,58.07-.06,10.08.05,20.45,3.35,30.1a17.658,17.658,0,0,0,13.02,11.71,38.071,38.071,0,0,0,25.04-3.85,102.938,102.938,0,0,0,13.91-8.91c2.15,5.61,4.38,11.18,6.46,16.82-10.95,7.93-23.93,13.28-37.51,14.03-10.53.65-22.04-.48-30.61-7.23-7.28-5.75-10.64-14.9-12.49-23.69-3.76-18.77-1.95-38.02-.91-56.97q.915-15.03,1.81-30.08-14.745,0-29.47,0c0-5.75-.01-11.5.01-17.26q15.315.015,30.63.01Q994.72,42.885,995.73,25.09Z"/><path class="a" d="M223.92,93.56q61.755-32.385,123.39-65,.015,10.41,0,20.82c-33.46,17.09-66.99,34.08-100.41,51.26-.04.15-.1.46-.14.61,33.77,19.03,67.65,37.88,101.44,56.87-.02,7.42,0,14.83-.01,22.25q-62.16-36.315-124.32-72.66C223.89,103,223.82,98.28,223.92,93.56Z"/><path class="a" d="M1100.94,28.58c41.26,21.73,82.58,43.33,123.78,65.18-.18,4.65-.06,9.31-.09,13.96q-62.175,36.315-124.31,72.65c-.02-7.42,0-14.84-.01-22.27,33.84-19.13,67.91-37.9,101.61-57.26-33.7-17.06-67.3-34.32-100.97-51.43C1100.92,42.47,1100.93,35.53,1100.94,28.58Z"/><path class="a" d="M612.39,86.32c-11.22-10.16-27.14-14.63-42.07-12.54-6.07.88-12.39,2.69-16.93,7.03a12.8,12.8,0,0,0-2.38,14.76c2.51,4.98,7.24,8.38,12.06,10.93,13.86,7.2,29.57,9.56,43.71,16.09,9.4,4.21,19.38,9.75,23.68,19.67,4.92,11.84,2.72,26.29-5.19,36.34-7.75,10.16-20.16,15.6-32.57,17.31-16.45,2.29-33.7,1.01-49.1-5.49a78.189,78.189,0,0,1-22.35-14.48c3.62-6.15,7.23-12.32,10.88-18.46a9.255,9.255,0,0,0,1.15-3.42h0c.4,2.25,2.16,4.21,3.51,5.91,6.46,7.34,14.09,14.37,23.71,17.13a70.487,70.487,0,0,0,30.11,1.25c7.76-1.47,16.19-4.96,19.93-12.41a17.469,17.469,0,0,0-5.82-21.97c-14.51-9.93-32.52-12-48.15-19.55-9.09-4.33-18.17-9.91-23.7-18.58-5.23-8.08-5.57-18.78-1.7-27.47,3.53-7.78,10.74-13.31,18.54-16.4,9.48-3.74,19.82-4.57,29.93-4.47,11.17.18,22.6,1.85,32.64,7a69.51,69.51,0,0,1,18.5,13.96L618.55,93.35"/><path class="a" d="M674.25,76.46c12.06-12.38,29.37-18.75,46.52-18.68,16.46-.3,34.42,3.56,45.96,16.17,10.82,12.2,13.19,29.28,13.73,44.99.11,25.04.01,50.08.05,75.12H757.69c0-6.76-.02-13.51.01-20.27-5.97,11.89-17.98,19.92-30.96,22.12-13.18,2.25-27.25,1.92-39.77-3.13-8.86-3.71-16.68-10.71-19.95-19.91-4.14-11.83-2.06-25.81,5.89-35.6,8.24-10.4,20.61-16.65,33.23-20,18.24-4.82,37.38-3.38,55.93-1.49-.99-10.53-2.96-21.82-10.24-29.98-7.6-8.24-19.38-10.57-30.14-10.74-13.79-.49-27.34,5.36-37.2,14.86Q679.375,83.185,674.25,76.46Zm28.56,58.74c-7.21,2.93-13.74,8.6-15.77,16.35-1.97,7.61-1.42,16.84,4.42,22.67,5.61,5.43,13.82,6.68,21.31,6.89,12.56.42,25.86-3,34.98-12.06,9.98-9.56,13.69-23.73,14.34-37.14-4.75-.67-9.51-1.25-14.3-1.56C732.73,129.48,716.96,129.19,702.81,135.2Z"/><path class="a" d="M433.62,310.95c7.76-6.68,21.14-5.49,27.44,2.68-1.57,2.17-3.15,4.35-4.58,6.63-1.84-8.01-14.16-9.86-18.76-3.26-2.32,3.55-1.87,7.96-1.91,12h15.63v6.31c-5.21,0-10.42.01-15.62,0q-.015,20.88-.01,41.75h-7.24q-.015-20.88-.01-41.75H418.25V329h10.31C428.33,322.73,428.58,315.45,433.62,310.95Z"/><path class="a" d="M106.25,308c2.81,0,5.61.01,8.42-.02a9.937,9.937,0,0,0-1.03,3.95c-.06,8.51.05,17.03-.04,25.54,3.38-5.05,8.81-9.22,15.08-9.47a13.013,13.013,0,0,1,11.68,5.46c2.85,4.25,3.28,9.55,3.37,14.53.05,9.69.01,19.38.02,29.07h-7.37c-.08-10.49.14-20.98-.12-31.46-.11-4.41-1.83-9.88-6.66-11.05-8.28-1.49-16.19,6.33-15.95,14.51-.06,9.33,0,18.67-.02,28h-7.38Z"/><path class="a" d="M263.5,308h21.13v62.68c4.64,0,9.28.01,13.93,0q0,3.18.01,6.38h-35.7c0-2.13,0-4.25.01-6.38,4.68.01,9.37,0,14.06,0q0-28.17,0-56.36-6.72-.015-13.44-.01Z"/><path class="a" d="M680.5,308h21.13v62.69c4.64-.01,9.29,0,13.93-.01,0,2.13,0,4.25.01,6.38h-35.7c0-2.13,0-4.25.01-6.38,4.68.01,9.37,0,14.06,0q0-28.17,0-56.36-6.72-.015-13.44-.01C680.49,312.21,680.5,310.1,680.5,308Z"/><path class="a" d="M747.09,308.57c3.65-2.13,8.54,1.38,7.97,5.48-.19,3.71-4.73,6.28-7.96,4.35C743.36,316.51,743.38,310.47,747.09,308.57Z"/><path class="a" d="M866.31,308c2.7,0,5.4.01,8.11-.02a9.615,9.615,0,0,0-1.03,3.95c-.07,17.7.07,35.4.05,53.09.01,4.04-.24,8.15.95,12.07-2.56-.02-5.11-.02-7.66-.17a34.054,34.054,0,0,1-.76-6.89c-2.65,4.25-7.11,7.53-12.21,7.91a18.023,18.023,0,0,1-16.38-7.64c-5.07-6.98-5.76-16.16-4.46-24.43,1.27-8.15,7.22-15.89,15.6-17.46,6.88-1.76,14.68,1.33,17.87,7.81C866.22,326.81,866.36,317.41,866.31,308Zm-19.25,27.5c-4.28,2.11-6.35,6.91-7,11.39-.8,6.79-.4,14.31,3.63,20.1,3.77,5.54,12.78,6.38,17.46,1.58,3.46-3.96,4.34-9.46,4.51-14.54.08-5.49-.67-11.43-4.21-15.84C858.08,334.02,851.73,333.34,847.06,335.5Z"/><path class="a" d="M1096.25,308c2.8,0,5.61.01,8.42-.02a9.406,9.406,0,0,0-1.03,3.98c-.06,8.51.05,17.01-.04,25.52,3.55-5.35,9.47-9.69,16.13-9.5a12.809,12.809,0,0,1,11,6.05c2.85,4.77,2.98,10.51,3.02,15.91v27.12h-7.37c-.04-10.01.06-20.03-.05-30.04-.04-4.65-1.15-10.55-6.12-12.3-8-2.03-16.15,5.28-16.5,13.21-.2,9.71-.02,19.42-.08,29.13h-7.38Z"/><path class="a" d="M1253.5,308h21.13v62.69c4.64,0,9.29-.01,13.94,0q-.03,3.18,0,6.37h-35.7c-.01-2.13-.01-4.25.01-6.38,4.68.01,9.36,0,14.06,0q0-28.17.01-56.35c-4.49-.03-8.97-.01-13.45-.02Q1253.485,311.145,1253.5,308Z"/><path class="a" d="M4.62,318.95c3.53-5.2,10.07-7.35,16.11-7.45,7.42-.51,14.6,3.07,19.37,8.63-1.68,2.21-3.44,4.36-4.9,6.72.59-2.07-1.22-3.5-2.5-4.81-3.89-3.92-9.89-4.8-15.14-3.87-4.5.84-8.39,5.13-7.8,9.87a10.023,10.023,0,0,0,4.92,7.95c6.18,4.08,13.45,6.01,20.07,9.21,3.73,3.29,7.18,7.61,7.31,12.83a18.067,18.067,0,0,1-11.74,18.34C20.14,379.91,7.76,377.93,0,370.14c1.72-2.76,3.21-5.64,4.66-8.53-.15.51-.45,1.53-.59,2.04,4.84,6.32,13.42,9.14,21.15,7.64a12.707,12.707,0,0,0,8.79-6.68c1.66-3.8.96-8.83-2.46-11.45-7.52-6.01-17.99-7.19-24.76-14.29C1.68,333.75.55,325.02,4.62,318.95Z"/><path class="a" d="M950.61,316.21c3.23-.55,6.47-1.11,9.73-1.49-2.57,4.31-2,9.51-2.88,14.28h15.86c-.01,2.1-.02,4.2,0,6.31H957.03c-.33,8.56-1.35,17.11-1,25.68.27,3.64.68,8.4,4.55,10.05,5.35,2.02,10.89-.93,15.04-4.2.82,2.02,1.61,4.04,2.4,6.08-6.23,4.54-14.76,6.72-22.12,3.82-5.32-2.28-6.82-8.53-7.31-13.74-.71-9.23.5-18.46.87-27.68q-5.265-.015-10.52,0-.015-3.165-.01-6.32h10.96C950.12,324.73,950.37,320.47,950.61,316.21Z"/><path class="a" d="M68.64,329.14c9.09-3.03,20.12-.25,25.78,7.74-1.8,1.95-4.23,3.5-5.14,6.11.08-2.31-1.93-3.78-3.43-5.21-5.88-5.03-15.84-4.62-20.9,1.41-7.64,8.87-5.99,25.26,4.85,30.85,6.54,3.45,14.79,1.2,19.46-4.29,1.46,1.76,2.93,3.5,4.4,5.25-9.38,9.79-27.22,9.39-35.63-1.45-5.66-6.99-6.86-16.9-4.22-25.34A23.354,23.354,0,0,1,68.64,329.14Z"/><path class="a" d="M171.13,328.65c6.46-1.62,13.78-.41,18.95,3.96,5.99,4.89,8.76,12.83,8.63,20.41.13,7.3-2.38,14.95-7.97,19.88-7.63,6.87-20.4,6.87-28.02,0-8.94-8.15-10.1-22.48-5.08-33.03A21.21,21.21,0,0,1,171.13,328.65Zm-.03,7.01c-7.35,4.15-9.26,13.67-8.08,21.43.87,6.68,5.36,14.02,12.71,14.54,6.13.7,11.4-4.04,13.37-9.52,2.73-7.41,2.36-16.54-2.59-22.95A12.377,12.377,0,0,0,171.1,335.66Z"/><path class="a" d="M223.15,328.64c6.45-1.61,13.75-.39,18.9,3.95,6.01,4.89,8.79,12.84,8.66,20.44.12,7.31-2.39,14.96-7.98,19.89-7.62,6.83-20.35,6.84-27.97.02-8.98-8.15-10.14-22.5-5.12-33.07A21.207,21.207,0,0,1,223.15,328.64Zm-.04,7.02c-7.6,4.31-9.4,14.26-7.95,22.23,1.04,6.42,5.55,13.28,12.6,13.74,6.4.72,11.75-4.45,13.6-10.19,2.46-7.48,1.96-16.63-3.31-22.82A12.31,12.31,0,0,0,223.11,335.66Z"/><path class="a" d="M380.17,328.64c6.24-1.54,13.28-.48,18.39,3.56,6.04,4.61,9.05,12.33,9.14,19.78.32,7.41-1.95,15.25-7.44,20.45-6.86,6.62-18.33,7.43-26.23,2.24-10.83-7.27-12.74-22.95-7.67-34.23A21.3,21.3,0,0,1,380.17,328.64Zm.01,6.98c-6.78,3.72-9.01,12.22-8.38,19.46.42,6.36,3.47,13.47,9.82,15.86,5.66,2.24,12.25-.73,15.06-5.94,4.29-7.63,4.3-17.93-.71-25.23A12.425,12.425,0,0,0,380.18,335.62Z"/><path class="a" d="M524.03,334.87a23.018,23.018,0,0,1,14.6-6.78c6.45-.5,13.71.62,18.35,5.54,4.02,4.4,4.88,10.65,5.06,16.38.06,9.02.01,18.03.03,27.05h-8.28c.14-2.59.52-5.17.47-7.77-2.41,3.34-5.27,6.67-9.43,7.73-6.83,1.81-15.21,1.58-20.6-3.54-5.38-5.25-4.22-14.86,1.52-19.4,8.18-6.96,19.74-6.63,29.79-5.44-.61-4.58-1.67-9.99-6.13-12.38a19.328,19.328,0,0,0-21.7,3.32Q525.865,337.225,524.03,334.87Zm8.45,21.94c-5,2.53-5.88,11.14-.48,13.69,6.78,2.55,15.73,1.14,20.15-5.02,2.27-3.06,2.97-6.91,3.37-10.62C547.91,353.87,539.5,353.03,532.48,356.81Z"/><path class="a" d="M587.8,330.09c7.66-4.35,18.35-1.75,23.35,5.46,4.52,6.12,5.26,14.12,4.56,21.48-.71,7.21-4.15,14.64-10.58,18.42-7.5,4.69-18.26,2.77-23.49-4.43.11,7.68.02,15.36.05,23.04h-7.75q-.015-32.535-.01-65.06h7.64c-.01,3.05.01,6.1-.01,9.16C582.85,334.97,584.68,331.79,587.8,330.09Zm4.26,4.55c-5.71,1.32-9.02,7.07-9.85,12.51-1.03,6.56-1.16,13.94,2.65,19.69,3.9,5.89,13.13,6.38,18.12,1.64,4.09-3.58,4.93-9.34,5.08-14.47.07-5.3-.47-11.05-3.82-15.38C601.48,334.94,596.42,333.62,592.06,334.64Z"/><path class="a" d="M639.78,330.1c7.44-4.24,17.81-1.92,22.95,4.89,4.86,6.14,5.71,14.41,4.99,21.96-.7,7.24-4.14,14.7-10.58,18.5a18.077,18.077,0,0,1-23.48-4.36c.06,7.66.01,15.31.03,22.97h-7.75q-.015-32.52-.01-65.06h7.64c-.01,3.08.01,6.17-.03,9.26C634.81,335.03,636.64,331.83,639.78,330.1Zm4.33,4.53c-5.73,1.3-9.06,7.05-9.9,12.49-1.03,6.56-1.17,13.96,2.65,19.71,3.89,5.89,13.1,6.39,18.1,1.67,4.12-3.58,4.96-9.4,5.11-14.56.05-5.28-.5-11.02-3.84-15.33C653.48,334.95,648.45,333.64,644.11,334.63Z"/><path class="a" d="M792.84,330.23c7.67-3.84,18.16-2.98,24.02,3.7,4.89,5.5,5.55,13.35,5.05,20.38-11.33.02-22.65-.03-33.97.03.44,4.51,1.41,9.31,4.72,12.66,6.22,6.58,17.83,6.09,23.91-.47q2.1,2,4.22,4c-9.12,11.28-29.61,9.72-36.72-3-3.33-5.92-3.77-13.04-2.93-19.66C782.09,340.65,786.19,333.56,792.84,330.23Zm0,7.82c-2.78,2.58-3.88,6.33-4.57,9.93,8.74.02,17.48.04,26.22-.01-.23-3.6-.97-7.42-3.6-10.09C806.23,332.87,797.53,333.31,792.84,338.05Z"/><path class="a" d="M1001.87,330.23c7.66-3.84,18.14-2.97,24,3.7,4.88,5.51,5.54,13.35,5.03,20.38-11.32.02-22.64-.03-33.97.03.45,4.52,1.43,9.35,4.76,12.7,6.24,6.54,17.81,6.03,23.88-.51q2.1,2,4.22,4c-9.11,11.29-29.61,9.72-36.72-3-3.33-5.93-3.77-13.06-2.93-19.68C991.1,340.63,995.2,333.53,1001.87,330.23Zm-.08,7.87c-2.75,2.57-3.84,6.3-4.53,9.88,8.75.02,17.49.04,26.23-.01-.23-3.62-.98-7.47-3.65-10.14C1015.16,332.85,1006.46,333.33,1001.79,338.1Z"/><path class="a" d="M1058.6,329.15c9.1-3.04,20.15-.27,25.82,7.73-1.9,1.93-4.13,3.65-5.37,6.11.45-1.81-1-3.07-2.13-4.22-5.52-5.83-15.98-6.04-21.49-.09-6.5,6.93-6.73,18.43-1.58,26.18a15.748,15.748,0,0,0,19.42,5.42,22.55,22.55,0,0,0,6.01-4.55c1.43,1.78,2.9,3.53,4.38,5.27-9.05,9.39-25.94,9.48-34.69-.36-6.43-6.98-7.96-17.53-5.17-26.42A23.354,23.354,0,0,1,1058.6,329.15Z"/><path class="a" d="M1155.46,337.51c3.57-5.4,9.55-9.62,16.22-9.53a12.365,12.365,0,0,1,10.99,6.13c2.63,4.47,2.91,9.82,2.96,14.88v28.07h-7.38c-.09-10.69.17-21.4-.13-32.09-.12-4.49-2.41-9.97-7.43-10.58-7.99-.66-15.26,6.78-15.15,14.67-.09,9.33-.01,18.67-.03,28h-7.32q0-24.03-.01-48.06h7.33C1155.51,331.84,1155.5,334.67,1155.46,337.51Z"/><path class="a" d="M1213.14,328.65c6.25-1.55,13.29-.5,18.41,3.55,6.03,4.6,9.05,12.3,9.15,19.75.34,7.65-2.1,15.79-7.97,20.96-6.54,5.87-16.85,6.72-24.47,2.51-12.21-7-14.4-24.4-8.3-36.16A21.079,21.079,0,0,1,1213.14,328.65Zm.02,6.97c-5.13,2.79-7.81,8.65-8.29,14.27-.66,6.49.7,13.68,5.51,18.39a12.024,12.024,0,0,0,15.59.96c4.56-3.6,6.57-9.57,6.77-15.22.26-5.94-1.29-12.37-5.79-16.52A12.3,12.3,0,0,0,1213.16,335.62Z"/><path class="a" d="M1317.22,328.63c6.44-1.59,13.72-.36,18.86,3.99,5.98,4.88,8.74,12.79,8.63,20.36.13,7.3-2.36,14.95-7.93,19.89-7.27,6.56-19.24,6.91-26.95.95-9.61-7.53-11.23-21.9-6.78-32.69A21.335,21.335,0,0,1,1317.22,328.63Zm-.07,7c-5.78,3.15-8.34,10.04-8.42,16.33-.26,6.72,1.94,14.3,7.91,18.06,5.36,3.32,12.87,1.41,16.25-3.83,5.18-7.69,5.3-18.77.06-26.45A12.433,12.433,0,0,0,1317.15,335.63Z"/><path class="a" d="M1360.14,332.49c6.48-6.09,17.69-6.04,24.28-.11a17.065,17.065,0,0,1,12.86-4.43c.29,2.13.59,4.27.93,6.4a21.415,21.415,0,0,0-10.97,1.93c2.78,6.32,2.19,14.43-2.87,19.45-5.13,5.03-13.22,5.61-19.71,3.17-1.36,2.08-2.84,5.55-.06,7.19,8.26,3.89,18.43-.38,26.37,4.66,5.9,4.56,5.24,14.54-.3,19.16-5.71,4.9-13.82,4.84-20.9,4.43-5.99-.57-13.29-1.99-16.27-7.88-2.72-5.79.78-12.47,6.25-15.08-1.41-1.49-2.98-3.06-3.1-5.24-.58-3.81,1.75-7.13,4.04-9.91C1354.07,350.24,1353.76,338.76,1360.14,332.49Zm6.89,3.06a9.712,9.712,0,0,0-5.11,7.39c-1,6.08,4.82,11.64,10.81,10.99,6.06.14,11.3-6.1,9.62-12.06C1380.96,335.31,1372.63,332.44,1367.03,335.55Zm-6.89,47.95c2.17,3.6,6.78,4.35,10.63,4.78,4.79.3,9.99.43,14.29-2.03,3.28-1.84,4.03-6.59,1.91-9.55-1.87-1.89-4.72-2.04-7.19-2.26-5.34-.22-10.75-.07-15.96-1.39C1360.44,375.22,1358.41,379.66,1360.14,383.5Z"/><path class="a" d="M734.69,329h19.13q0,20.85,0,41.69,5.58-.015,11.18,0-.015,3.18,0,6.37H734.06v-6.37q6.09-.015,12.19-.01V335.32q-5.79-.015-11.56-.01C734.68,333.21,734.68,331.1,734.69,329Z"/><path class="a" d="M1405.44,329q3.945,0,7.92.01,7.335,18.945,14.72,37.86c3.9-12.57,8.76-24.9,11.35-37.83,2.47-.12,4.96-.04,7.45-.03-1.3,8.01-4.37,15.56-6.98,23.21-3.52,9.87-7,19.76-10.54,29.62-1.47,4-3.59,8.05-7.28,10.42a16.469,16.469,0,0,1-19.2-1.78c1.38-2.34,2.89-4.6,4.44-6.83-1.56,2.56,1.63,3.34,3.46,4.07,2.99.8,6.68.73,9.03-1.56,2.54-2.6,3.76-6.12,5.12-9.41Q1415.18,352.87,1405.44,329Z"/></svg>