<svg id="1669ec99-043f-4c9d-ba70-de0e4e224a84" data-name="Layer 1" xmlns="http://www.w3.org/2000/svg" viewBox="0 0 999.215 596.65"><title>softwarearrow</title><path d="M202.27,7.02C206.43,3.46,211.4.34,217,0a16.7,16.7,0,0,1,14.44,9.32c3.68,7.17,3.54,15.58,2.49,23.37-.68,3.46-1.03,7.12-2.71,10.27-1.76,1.73-4.29,1.34-6.48.97-.6-6.34,4.24-11.14,7.12-16.27-2.13-6.73-3.27-14.93-9.8-18.96-5.54-3.38-11.92.21-16.38,3.76-8.67,7.22-15.02,16.82-20.52,26.57-4.4,7.99-7.54,17.76-4.3,26.72,2.37,6.86,8.56,11.67,15.26,13.93a52.251,52.251,0,0,0,30.55.9,7.665,7.665,0,0,1,5.04.25c-3.46,5.66-10.58,7.19-16.74,7.44-10.34.23-21.06-1.99-29.83-7.66-7-4.52-12.18-12.31-12.17-20.81-.42-8.52,3.55-16.35,7.39-23.69C186.23,25.46,193.09,15.12,202.27,7.02Z" style="fill:#fff"/><path d="M289.77,24.56c1.72-.87,4.48-.79,5.18,1.37.7,6.06-2.83,11.4-5.01,16.79-6.54,15.55-17.06,29.2-29.73,40.25-2.7,2.61-6.72,4.68-6.94,8.9-.88,3.99,1.97,7.5,5.16,9.48,5.42,3.27,11.9,3.67,18.07,4.01.12.56.35,1.66.47,2.21-5.37,2.8-12.23,4.51-17.65.88-6.86-2.61-11-9.05-13.19-15.76-5.86,1.81-11.91-.45-16.79-3.71.15-.8.43-2.4.58-3.21,5.57-.27,11.86,1.99,16.92-1.2,2.55-5.46,4.51-11.22,7.58-16.44,5.64-10.61,13.06-20.1,20.3-29.63A29.893,29.893,0,0,1,289.77,24.56ZM257.46,78.2c4.43-5.23,9.83-9.53,14.13-14.87a77.227,77.227,0,0,0,14.52-26.55C271.94,46.56,263.06,62.26,257.46,78.2Z" style="fill:#fff"/><path d="M315.43,38.2c1.65-.87,2.93.81,4.27,1.51a26.051,26.051,0,0,1-1.75,5.36c-1.52,0-3.23.42-4.4-.83C312.61,42.14,313.93,39.7,315.43,38.2Z" style="fill:#fff"/><path d="M292.8,62.56c4.75-2.23,10.1-2.94,15.29-3.3,3.08-.36,3.48,3.46,4.31,5.58-4.16,16.6-18.76,28.32-22.42,45.11-.69,2.86-1.1,7.43,2.61,8.31,5.31,2.53,10.53-2.1,15.96-.7,2.01-5.39,5.13-10.27,8.07-15.19,4.15-6.64,8.62-13.26,14.64-18.36,2.06-1.56,4.54-3.5,7.29-2.8a6.4,6.4,0,0,1,4.8,5.56c1.05,6.14-1,12.28-3.14,17.96-1.28-.94-2.95-1.56-3.68-3.06-.36-3.29,1.25-6.73-.59-9.79A17.555,17.555,0,0,0,329.25,95c-7.49,6.1-11.54,15.16-15.07,23.91-.9,2.7-1.75,6.1.16,8.57,2.63,2.96,6.78,4.03,10.61,4.15,7.44.06,14.48-2.75,21.15-5.76,1.35-.81,2.93-.46,4.41-.4,6.67-15.88,15.18-30.93,21.26-47.07,1.27-4.25,4.46-7.52,7.72-10.36,1.63-1.85,4.05.59,3.28,2.51a47.891,47.891,0,0,1-5.71,11.34c-3.02,4.32-4.6,9.41-6.89,14.12-6.05,13.59-12.42,27.05-18.28,40.73,15.34-11.91,28.12-27.16,45.22-36.74,2.8-1.74,6.05-.7,8.87.39-2.31,5.25-7.15,8.54-11.78,11.57-6.19,3.99-12.01,9.11-15.1,15.94-1.68,4.08-3.97,8.3-3.52,12.84.97,4.63,5.86,6.52,9.92,7.6,5.98,1.78,12.02-.5,17.95-1.27.16,1.2,1.28,3.08-.46,3.67-6.58,3.42-14.41,5.98-21.78,3.63-4.36-1.27-8.94-3.69-10.65-8.18-2.32-5.89-.28-12.25-.31-18.33-6.89,5.77-12.06,13.47-19.7,18.36-2.45,1.7-6.81,2.69-8.39-.63,1.71-5.74,4.61-11.06,6.71-16.67-8.21,5.97-18.64,9.61-28.82,7.55-4.28-.94-9.06-2.23-11.73-5.98-1.74-2.3-1.27-5.32-1.32-8.01-5.37,5.08-13.79,4.19-19.93,1.1-4.21-2.22-4.49-7.77-3.72-11.91,2.68-14.5,12.58-26.02,18.52-39.16a3.174,3.174,0,0,0-1.92-5.06c-2.37.28-4.95,2.14-7.23.64C290.4,67.15,290.57,63.49,292.8,62.56Z" style="fill:#fff"/><path d="M28.24,96.05c3.31-1.12,7.31-2.14,10.35.22,3.97,2.13,4.28,6.97,5.07,10.89.96,5.88,2.21,12.2-.17,17.91-1.59-.48-3.49-.79-4.35-2.4-3.17-5.43.35-12.17-2.42-17.72-2.2-2.9-6.63-2.84-9.51-1a21.034,21.034,0,0,0-9.94,15.85c-.47,12.02,8.37,22.58,6.22,34.73-.77,5.96-8.04,10.41-13.45,7.16C3.58,157.95,1.13,150.15,0,143.21v-7.95a27.272,27.272,0,0,1,3.55-9.96,35.722,35.722,0,0,1,3.65-.85c.95,8.18-2.55,16.65.65,24.61a11.83,11.83,0,0,0,7.24,7.25c1.13-2.31,2.34-4.81,1.72-7.45-1.53-10.03-6.24-19.61-5.37-29.95C11.92,108.95,18.58,99.12,28.24,96.05Z" style="fill:#fff"/><path d="M466.47,111.31c4.29-1.35,8.44-3.09,12.78-4.27,2.46-.78,5.67.07,6.88,2.49,1.43,4.29-.01,8.86-1.46,12.94-4.8,13.83-14.58,25.03-21.62,37.69,5.09-2.86,9.2-7.31,14.71-9.44,3.74-1.57,7.5-3.11,11.32-4.52,2.9.99,6.45,2.91,5.71,6.59-1.03,12.62-10.85,22.5-12.49,34.98-.75,3.45,3,6.83,6.34,5.76,3.21-.73,6.4-2.58,9.75-1.35-3.67,7.18-14.33,10.42-20.69,4.93-3.49-3.75-2.26-9.51-1.03-13.96,3.35-9.64,7.93-19.01,9.74-29.09-14.24,3.89-25.07,14.93-33.65,26.44-2.13,3.53-4.1,7.46-8.07,9.25-1.43-1.84-3.35-4.03-2.04-6.49,7.4-18.66,21.22-33.76,30.26-51.55,2.23-5.12,5.23-10.11,6.07-15.7-2.41-1.99-5.33-.21-7.99.07-2.08.6-4.2.03-6.24-.37C465.3,114.23,465.89,112.77,466.47,111.31Z" style="fill:#fff"/><path d="M60.47,125.58a22.272,22.272,0,0,1,17.48,2.21c3.73,2.97,2.75,8.44,1.67,12.46-3.7,10.6-8.69,21.33-17.4,28.75-5.2,4.39-12.36,7.17-19.17,5.5-5.18-1.13-10.91-3.69-12.6-9.19-1.14-2.03.41-4.09,1.06-5.99,4.32-10.76,10.23-21.31,19.36-28.71A29.143,29.143,0,0,1,60.47,125.58Zm11.05,4.6c-1.23,1.61-2.16,3.92-4.48,4.14-3.6-.19-7.76-2.06-10.89.65-3.48,3.15-6.33,6.93-9.58,10.31a44.069,44.069,0,0,0-10.28,18.5c4.87,3.35,11.34,5.97,17.13,3.43,8.53-3.41,13.48-11.88,17.2-19.81,1.56-4.04,4.32-7.91,4.1-12.4C74.73,132.83,72.99,131.48,71.52,130.18Z" style="fill:#fff"/><path d="M126.45,128.21c2.35-.98,6.04.74,5.33,3.61a19.3,19.3,0,0,1-5.54,11.17c-8.44,9.45-16.54,19.29-26.17,27.58,5.56.32,11.14.37,16.7.78a19.746,19.746,0,0,1,14.35,12.1c3.08,8.35.69,17.64-3.28,25.27-5.77,10.75-12.24,21.32-20.72,30.18-3.54,4-8.86,5.27-13.57,7.34-4.88,1.89-9.61,4.21-14.61,5.78-5.52,1.08-10.98-1.08-15.94-3.28a14.07,14.07,0,0,1-8.2-10.04c-1.33-6.69,1.21-13.29,3.76-19.37,5.62-12.86,13.21-24.72,20.92-36.4-4.11,1.51-8.08,3.35-12.2,4.82-1.5-3.06-4.9-2.85-7.73-3.61-2.71-1.62-.15-5,.77-7.02,1.53-3.04,5.11-.97,7.37-.07,2.4,1.33,5.1.33,7.54-.32a40.926,40.926,0,0,0,15.34-8.4c2.4-2.09,3.3-5.28,5.31-7.67,6.07-7.59,12.1-15.22,18.37-22.64C117.76,134.17,121.37,129.95,126.45,128.21Zm-20.02,29.11a38.57,38.57,0,0,0,10.13-13.34A38.663,38.663,0,0,0,106.43,157.32Zm-5.03,19.14c-6.75,1.35-12.61,5.49-17.21,10.49-8.85,9.54-14.61,21.41-19.75,33.24a82.127,82.127,0,0,0-4.31,11.64c-1.09,3.94.4,8.67,3.99,10.82A25.217,25.217,0,0,0,77,246.5c8.81-.27,16.98-4.56,23.53-10.23a88.735,88.735,0,0,0,21.89-29.16c2.24-5.22,4.65-10.6,4.85-16.37.22-4.46-1.98-9.13-6.07-11.18C115.2,176.42,108.1,174.81,101.4,176.46Z" style="fill:#fff"/><path d="M170.12,141.07c5.24-2.36,12.16-2.13,16.08,2.51,5.85,6.95,4.29,17.92-1.95,24.12a11.5,11.5,0,0,0,7.46-2.18,29.5,29.5,0,0,1,14.85.87,8.091,8.091,0,0,1,5.61,6.36c-1.24,4.53-3.47,8.72-5.04,13.15-3.31,8.94-8.87,16.82-12.17,25.76,10.25-8.84,20.12-18.22,31.31-25.89,1.59-1.32,3.08.45,4.11,1.58,1.32,2.6.96,5.62.35,8.36-2.23,9.3-4.96,18.47-7.16,27.77a148.721,148.721,0,0,0-1.7,18c2.03-.33,4.24-.57,5.81-2.07,4.6-3.73,9.36-7.3,13.71-11.33,5.46-8.98,12.32-17.02,18.18-25.73,1.42-2.11,1.51-5.74,4.53-6.17a4,4,0,0,1,.18,3.92c-4.19,12.58-11.91,23.57-20,33.92-5.85,5.88-11.95,11.95-19.7,15.26a6.64,6.64,0,0,1-7.32-.84c-2.73-2.37-2.78-6.34-2.79-9.67.1-14.62,7.62-27.85,9.41-42.15-1.93.56-4.01,1.03-5.47,2.53q-11.88,10.635-23.79,21.26c-3.36,2.7-7.25,5.14-11.64,5.56-1.53-2.67.28-5.35,1.2-7.86,4.26-10.63,11.01-19.99,15.88-30.31,1.84-4.21,3.74-8.41,5.27-12.75-2.01-1.01-3.98-2.37-6.27-2.52a37.769,37.769,0,0,1-7.35.45c-.09.63-.25,1.9-.34,2.53-3.8-.02-7.59.25-11.38.3-1.41-.21-2.16,1.12-2.92,2.03-5.59,7.44-11.34,14.78-16.41,22.59-2.4,4.65-6.19,9.28-5.28,14.86,4.98,3.79,11.65,2.91,17.24,1.19,3.65-.89,7.56-3.23,11.22-1.06-3.65,7.06-11.99,10.64-19.69,9.13-5.32-1.16-11.37-2.49-14.96-6.93-2.81-3.52.5-7.53,1.64-11.01,4.3-11.59,13.93-20.17,18.53-31.61-7.46-.16-14.4,3-21.38,5.18-1.54.52-3.97-.77-3.78-2.54-.18-2.35,2.01-3.89,3.93-4.71,8.75-3.83,18.69-2.79,27.71-5.39,3.66-4.89,6.9-10.57,7.29-16.79a6.245,6.245,0,0,0-4.58-6.44c-2.95-.95-5.88.51-8.66,1.34C169.9,144.12,169.97,142.59,170.12,141.07Z" style="fill:#fff"/><path d="M521.85,165.75c4.88-1.96,10.56-.58,14.71,2.41a3.983,3.983,0,0,1,1.81,4.53c-1.29,4.67-6.14,6.93-10.4,8.22-5.4,1.72-11.28,1.88-16.44,4.34-3.49,1.87-4,6.22-5.66,9.44-1.04,3.22-3.58,6.27-2.81,9.81,2.87,4.79,8.47,7.43,13.89,7.95,10.01.69,19.9-2.16,29.12-5.8.83-.05,2.49-.16,3.33-.22-.83,1.64-1.45,3.62-3.25,4.46-10.98,5.63-23.94,8.99-36.15,5.71-5.29-1.6-11.4-4.18-13.09-9.99-1.5-5.96,1.07-11.8,2.25-17.56a17.54,17.54,0,0,1-6.42.01,19.283,19.283,0,0,1,2.44-7.01c2.94-.41,6.45,1.06,8.83-1.32C509.93,175.75,514.21,168.41,521.85,165.75Z" style="fill:#fff"/><path d="M551.64,180.31c3.6-1.53,7.62-1.65,11.49-1.56,4.9-.41,9.35,5.56,6.94,10.04-2.41,5.78-4.92,11.52-7.26,17.34,9.1-5.11,18.75-9.79,29.2-11.21,4.07-.66,9.11.9,10.79,4.99a18.1,18.1,0,0,1-.96,9.18c-3.78-1.31-4.04-6.43-7.91-7.48-8.44-1.02-16.07,3.8-22.75,8.32-9.59,6.55-17.15,15.5-26.04,22.86-.9-1.28-2.19-2.44-2.35-4.07-.35-2.51,1.54-4.44,2.84-6.35,7.75-10.68,12.53-23.1,17.29-35.31-3.83-2.14-7.74,1.6-11.47-.68C549.08,185.16,549.14,181.27,551.64,180.31Z" style="fill:#fff"/><path d="M625.85,209.75c4.43-1.81,9.51-.75,13.52,1.6,1.52.96,3.42,2.32,3.14,4.4-.3,3.17-2.79,5.62-5.46,7.08-6.25,3.46-13.65,3.36-20.23,5.83a7.25,7.25,0,0,0-4.56,4.37c-1.79,4.3-3.73,8.54-5.34,12.91-.48,4.62,4.44,7.28,8,9.03,8.93,3.39,18.72.85,27.58-1.56,3.67-.9,6.95-3.37,10.9-2.98-.84,1.64-1.45,3.62-3.25,4.46-10.98,5.63-23.94,8.99-36.15,5.71-5.29-1.6-11.4-4.18-13.09-9.99-1.47-5.95,1.02-11.82,2.25-17.57a17.324,17.324,0,0,1-6.42.02,19.283,19.283,0,0,1,2.44-7.01c2.94-.42,6.45,1.06,8.83-1.32C613.93,219.75,618.21,212.41,625.85,209.75Z" style="fill:#fff"/><path d="M280.44,229.3c7.3-2.84,15.26-5.49,23.16-3.84,2.81.63,5.99,3.94,4.1,6.87-4.37,9.37-11.06,17.49-15.2,26.98-1.32,3.78-3.01,8.16-1.18,12.05,4.42,2.55,10.18,3.02,14.73.49,4.55-2.49,9.37-5.27,14.79-4.58-1.82,5.9-7.43,9.44-13,11.25-5.99,1.78-12.61,2.16-18.51-.13a8.343,8.343,0,0,1-5.32-5.38c-1.86-5.54-.06-11.32.95-16.83-8.64,4.18-18.12,8.28-27.95,6.82-3.62-.74-8.01-2.36-8.94-6.4-.75-4.26,2.03-8.04,4.98-10.76C261.06,238.69,270.62,233.51,280.44,229.3Zm-15.51,13.29a41.437,41.437,0,0,0-8.48,5.61c-1.6,1.86-3.24,4.51-2,6.99s4.59,3.14,6.99,2.08c11-3.9,22.04-8.49,31.22-15.85,2.75-3.23,6.17-6.49,6.73-10.9a16.174,16.174,0,0,0-6.39.17C283.1,233.21,273.97,237.95,264.93,242.59Z" style="fill:#fff"/><path d="M755.45,237.21c2.34-.98,6.04.74,5.33,3.61a19.386,19.386,0,0,1-5.54,11.17c-8.44,9.45-16.54,19.29-26.17,27.58,7.61,1.01,16.07-1.08,22.89,3.27,6.64,3.64,10.08,11.53,9.54,18.91-.39,9.67-5.62,18.08-10.42,26.15-4.69,7.44-9.61,14.87-15.99,20.97-3.04,3.05-7.31,4.12-11.14,5.8-5.06,1.99-10.01,4.27-15.13,6.1-5.49,1.58-11.11-.59-16.13-2.7a14.429,14.429,0,0,1-8.68-9.47c-1.67-6.41.55-12.94,2.95-18.85,5.65-13.41,13.54-25.71,21.52-37.82-4.11,1.51-8.09,3.35-12.21,4.82-1.49-3.06-4.89-2.85-7.71-3.61-2.72-1.61-.16-5,.76-7.01,1.52-3.05,5.11-.98,7.37-.08,2.39,1.33,5.1.33,7.54-.32a40.926,40.926,0,0,0,15.34-8.4c2.4-2.09,3.29-5.28,5.31-7.67,6.07-7.59,12.1-15.22,18.37-22.64C746.76,243.17,750.37,238.95,755.45,237.21Zm-20.02,29.11a38.477,38.477,0,0,0,10.13-13.34A38.663,38.663,0,0,0,735.43,266.32Zm-5.03,19.14a31.455,31.455,0,0,0-15.73,8.97c-10.96,11.07-17.42,25.56-23.29,39.75-1.93,4.68-4.16,10.41-.86,15.03,3.46,4.2,9.24,5.74,14.47,6.26,10.65.17,20.26-5.83,27.66-13.03C743.27,332,751.68,319,755.62,304.57c1.57-5.48.56-12.56-4.79-15.62C744.74,285.48,737.32,283.79,730.4,285.46Z" style="fill:#fff"/><path d="M324.64,239.31c3.6-1.53,7.63-1.65,11.49-1.56,4.91-.41,9.35,5.56,6.94,10.04-2.41,5.78-4.92,11.53-7.26,17.34,9.1-5.11,18.75-9.79,29.2-11.21,4.08-.66,9.11.9,10.79,4.99a18.1,18.1,0,0,1-.95,9.18c-3.79-1.31-4.04-6.43-7.91-7.48a20.384,20.384,0,0,0-10.6,1.53c-10.33,4.15-18.79,11.65-26.82,19.15-3.91,3.38-7.12,7.52-11.38,10.5-.9-1.28-2.19-2.43-2.35-4.07-.35-2.52,1.54-4.44,2.84-6.35,7.75-10.69,12.53-23.1,17.29-35.31-3.82-2.14-7.74,1.6-11.47-.67C322.08,244.17,322.14,240.27,324.64,239.31Z" style="fill:#fff"/><path d="M398.15,269c5.03-2.27,11.06-1.01,15.41,2.17a3.95,3.95,0,0,1,1.81,4.51c-1.28,4.67-6.14,6.94-10.4,8.23-5.4,1.72-11.27,1.88-16.44,4.34-3.49,1.87-4,6.21-5.66,9.44-1.04,3.22-3.58,6.27-2.81,9.81,2.87,4.79,8.47,7.43,13.89,7.95,10.02.69,19.9-2.16,29.12-5.8.83-.05,2.49-.16,3.33-.22-.83,1.64-1.45,3.62-3.25,4.46-10.98,5.63-23.94,8.99-36.15,5.71-5.29-1.61-11.4-4.18-13.1-10-1.46-5.94,1.03-11.81,2.26-17.56a17.324,17.324,0,0,1-6.42.02,19.219,19.219,0,0,1,2.44-7.01c2.95-.41,6.46,1.06,8.83-1.32C386.76,278.89,390.91,271.89,398.15,269Z" style="fill:#fff"/><path d="M530.72,280.31c.91-2.46,3.84-2.76,6.09-2.4a11.091,11.091,0,0,1-.42,7.3c-8.72,21.2-18.8,41.82-27.39,63.08,3.7.31,7.42.2,11.14.24-.75,1.31-1.09,3.05-2.52,3.81-3.7,2.09-8.45.74-12.03,3.01-2.48,3.19-3.74,7.5-7.35,9.73-1.33,1.06-2.89.07-4.09-.67-1.62-3.4,1.38-6.41,2.97-9.15-5.33-2.22-10.68-4.4-15.97-6.7-3.09-1.29-4.27-4.8-4.66-7.86-1.04-7.7,2.21-15.46,7.46-21,7.24-7.82,17.32-13.38,28.05-14.17,2.69-.34,6.72,3.02,8.24-.55C523.91,296.84,527.11,288.48,530.72,280.31Zm-28.33,33.94c-5.37,1.59-10,5.05-13.81,9.08-2.94,3.27-5.69,7.09-6.27,11.57a11.1,11.1,0,0,0,7.27,11.29c3.04,1.15,6.92,3.51,9.93,1.1,3.69-9.03,8.64-17.48,12.69-26.34.55-1.81,2.34-4.07.51-5.69C509.75,313.12,505.74,313.12,502.39,314.25Z" style="fill:#fff"/><path d="M791.47,278.58a22.259,22.259,0,0,1,17.49,2.21c3.74,2.97,2.72,8.45,1.65,12.48-3.69,10.59-8.69,21.31-17.38,28.73-5.21,4.39-12.37,7.17-19.19,5.5-5.18-1.13-10.9-3.69-12.59-9.18-1.15-2.04.41-4.1,1.06-6.01,4.14-10.33,9.75-20.42,18.26-27.8A29.42,29.42,0,0,1,791.47,278.58Zm11.06,4.6c-1.25,1.61-2.18,3.92-4.49,4.14-3.6-.19-7.76-2.06-10.88.65-3.49,3.15-6.34,6.93-9.59,10.31a44.069,44.069,0,0,0-10.28,18.5c4.86,3.35,11.33,5.97,17.13,3.43,8.77-3.53,13.75-12.31,17.5-20.49,1.55-4.03,4.47-8.02,3.66-12.54C805.38,285.35,803.69,284.37,802.53,283.18Z" style="fill:#fff"/><path d="M813.62,289.32c3.6-1.54,7.63-1.66,11.51-1.57,4.9-.41,9.35,5.56,6.94,10.04-2.41,5.78-4.92,11.52-7.26,17.34,9.1-5.11,18.75-9.8,29.2-11.21,4.08-.66,9.12.9,10.79,4.99a18.321,18.321,0,0,1-.95,9.18c-3.8-1.31-4.05-6.43-7.92-7.48-8.44-1.03-16.07,3.8-22.75,8.32-9.59,6.55-17.15,15.5-26.03,22.86-.91-1.28-2.21-2.43-2.36-4.07-.35-2.52,1.54-4.45,2.84-6.36,7.75-10.68,12.53-23.09,17.29-35.3-3.83-2.14-7.74,1.6-11.47-.67C811.08,294.18,811.13,290.28,813.62,289.32Z" style="fill:#fff"/><path d="M550.86,331.75c4.87-1.96,10.55-.58,14.7,2.41a3.969,3.969,0,0,1,1.81,4.52c-1.28,4.67-6.14,6.94-10.39,8.23-5.41,1.72-11.28,1.88-16.45,4.34-3.49,1.86-4,6.21-5.66,9.44-1.04,3.22-3.58,6.27-2.81,9.81,2.87,4.79,8.47,7.43,13.89,7.95,10.02.69,19.9-2.16,29.12-5.8.83-.05,2.49-.16,3.33-.22-.83,1.64-1.45,3.62-3.25,4.46-10.98,5.62-23.94,8.99-36.15,5.71-5.29-1.61-11.4-4.18-13.1-10-1.46-5.94,1.03-11.81,2.26-17.56a17.324,17.324,0,0,1-6.42.02,19.389,19.389,0,0,1,2.43-7.01c2.95-.42,6.46,1.06,8.84-1.32C538.94,341.74,543.21,334.4,550.86,331.75Z" style="fill:#fff"/><path d="M624.77,359.54c3.12-4.22,7.46-8.62,13.09-8.58.2,3.78-3.43,5.65-5.87,7.81-11.14,11.27-20.41,24.2-31.21,35.78-3.6,3.39-7.22,7.21-12.02,8.84-3.37,1.13-5.13-2.96-5.24-5.67-.9-14.97-1.35-29.98-1.24-44.98,1.56-.52,3.14-.95,4.75-1.34,4.19,8.45,2.16,18.25,2.8,27.32.5,4.66-.59,9.77,1.93,14,4.39-5.06,9.88-8.91,14.7-13.5C612.75,372.84,618.77,366.19,624.77,359.54Z" style="fill:#fff"/><path d="M728.77,363.56c1.72-.88,4.48-.79,5.18,1.37.7,6.33-3.08,11.85-5.32,17.49-7.15,16.85-19.16,31.23-33.19,42.83-3.75,2.73-4.5,8.9-1.25,12.3,4.16,4.8,10.85,5.94,16.85,6.56,4.38-10.75,10.54-21.28,19.97-28.35,7.3-5.53,18-6.94,25.94-1.97,3.73,2.96,2.75,8.44,1.67,12.46-3.78,10.81-8.89,21.79-17.94,29.19-6.13,5.14-14.99,7.23-22.48,3.92a13.455,13.455,0,0,1-9.41-10.05c-5.71,1.29-10.96-1.77-15.52-4.81-4.25-3.09-6.29-8.09-8.14-12.81-5.86,1.8-11.92-.45-16.78-3.71.14-.8.42-2.4.57-3.21,5.57-.27,11.86,1.99,16.91-1.2,4.03-9.82,8.65-19.48,14.76-28.21,4.85-7.69,11.23-14.31,15.77-22.19A31.141,31.141,0,0,1,728.77,363.56ZM696.46,417.2c4.42-5.23,9.83-9.53,14.13-14.87a77.227,77.227,0,0,0,14.52-26.55C710.94,385.56,702.06,401.26,696.46,417.2Zm54.07-1.02c-1.25,1.6-2.18,3.91-4.49,4.14-3.6-.19-7.76-2.06-10.88.65-3.49,3.15-6.34,6.93-9.59,10.31a44.069,44.069,0,0,0-10.28,18.5c4.87,3.35,11.34,5.97,17.13,3.43,8.77-3.53,13.75-12.31,17.5-20.49,1.55-4.03,4.47-8.03,3.66-12.55C753.38,418.35,751.69,417.36,750.53,416.18Z" style="fill:#fff"/><path d="M652.86,374.75c4.87-1.96,10.56-.58,14.7,2.42a3.959,3.959,0,0,1,1.81,4.52c-1.29,4.67-6.14,6.93-10.4,8.22-5.41,1.72-11.27,1.88-16.44,4.34-3.49,1.86-4,6.21-5.66,9.44-1.04,3.22-3.58,6.27-2.81,9.82,2.87,4.78,8.47,7.42,13.89,7.94,10.02.69,19.9-2.16,29.12-5.8.83-.05,2.49-.16,3.33-.22-.84,1.63-1.45,3.62-3.24,4.46-10.99,5.62-23.94,8.99-36.16,5.71-5.29-1.6-11.4-4.18-13.09-9.99-1.47-5.95,1.02-11.82,2.25-17.57a17.324,17.324,0,0,1-6.42.02,19.219,19.219,0,0,1,2.44-7.01c2.94-.42,6.45,1.06,8.83-1.32C640.94,384.74,645.22,377.4,652.86,374.75Z" style="fill:#fff"/><path d="M767,417.8c5.32-.99,11.21-2.76,16.41-.45,3.34,1.58,2.9,5.71,2.58,8.76,4.97-2.56,10.25-5.22,15.99-5.05,4.89.25,10.02,3.16,11.4,8.11,2.65,8.08.11,16.63-2.68,24.31-3.5,9.75-10.75,18.4-20.46,22.34-10.33,4.35-22.15,3.25-32.48-.5-4.4,4.57-6.62,10.66-10.8,15.38-5.14,6.21-10.43,12.29-15.94,18.16-1.63-1.8-3.34-4.05-2.68-6.63,2.45-3.54,5.6-6.53,8.24-9.92,14.07-16.64,23.26-36.6,35.49-54.51,2.48-3.78,5.85-7.98,4.96-12.77-2.92-2.78-7.36.01-10.57-1.69C764.16,422.46,764.42,418.12,767,417.8ZM796.3,428c-4.29,1.56-8.57,4.01-11.09,7.95q-10.785,15.225-21.7,30.35c-.76,1.21-2.13,2.53-1.24,4.05,2.87,2.64,7,2.99,10.7,3.35,9.31.19,19.54-2.95,24.98-11,5.48-6.06,9.43-13.69,10.25-21.89.26-3.9-.11-8.31-2.88-11.32C803.05,427.01,799.27,427.15,796.3,428Z" style="fill:#fff"/><path d="M835.86,451.75c4.42-1.81,9.5-.75,13.51,1.6,1.52.95,3.42,2.32,3.14,4.39-.3,3.18-2.79,5.63-5.47,7.09-6.24,3.46-13.64,3.36-20.23,5.83a7.258,7.258,0,0,0-4.55,4.37c-1.79,4.3-3.73,8.54-5.33,12.91-.5,4.62,4.43,7.28,7.98,9.02,8.68,3.32,18.22.97,26.86-1.34,3.96-.84,7.42-3.57,11.63-3.19-.84,1.64-1.46,3.62-3.25,4.46-10.98,5.63-23.94,8.99-36.15,5.71-5.29-1.61-11.4-4.18-13.09-9.99-1.47-5.95,1.02-11.82,2.25-17.57a17.325,17.325,0,0,1-6.42.02,19.036,19.036,0,0,1,2.44-7.01c2.94-.42,6.45,1.06,8.82-1.32C823.93,461.75,828.21,454.4,835.86,451.75Z" style="fill:#fff"/><path d="M993.48,454.18c.62-3.63,6.85-1.88,5.56,1.41-5.25,12.5-10.73,24.92-15.56,37.6-4.49,13.32-6.86,27.27-11.39,40.59-.99,2.5-1.51,5.51-4.18,6.8-1.39-3.22-.96-6.75-.34-10.09C971.76,503.76,983.11,478.95,993.48,454.18Z" style="fill:#fff"/><path d="M865.63,465.31c3.6-1.53,7.63-1.65,11.5-1.56,4.9-.41,9.35,5.56,6.94,10.04-2.41,5.78-4.92,11.52-7.26,17.34,9.1-5.11,18.75-9.8,29.2-11.21,4.07-.66,9.12.9,10.79,4.99a18.321,18.321,0,0,1-.95,9.18c-3.8-1.31-4.05-6.43-7.92-7.48-7.93-1.02-15.18,3.34-21.56,7.49-10.1,6.66-17.99,16-27.22,23.69-2.2-2.06-3.39-5.53-1.19-8.05,8.59-11.29,13.91-24.55,18.96-37.68-3.83-2.14-7.74,1.6-11.47-.68C863.08,470.16,863.14,466.27,865.63,465.31Z" style="fill:#fff"/><path d="M938.12,478.89c4.05-1.67,9.24-3.49,13.02-.23,3.36,2.05,3.63,6.22,4.36,9.69.94,5.48,2.08,11.24.76,16.75-.73,2.85-4.18,1.51-5.14-.44-3.16-5.44.38-12.16-2.39-17.7-2.21-2.91-6.65-2.86-9.53-1-6.5,3.98-10.93,11.84-9.79,19.55.97,9.7,6.93,18.38,6.37,28.32.19,4.87-3.09,9.95-8.09,10.78-5.23,1.06-9.66-3.31-11.92-7.56-4.8-9.02-5.58-20.78-.26-29.75a12.324,12.324,0,0,1,3.64-.72c.94,5.73-1.01,11.41-.67,17.17.02,5.8,2.44,12.66,8.58,14.45,1.3-2.23,2.37-4.78,1.75-7.4-1.56-10.02-6.26-19.62-5.36-29.95C923.92,491.67,929.6,482.58,938.12,478.89Z" style="fill:#fff"/><path d="M959.3,551.85a5.672,5.672,0,0,1,6.33,1.38c1.31,3.05-1.64,6.42-4.62,6.92C957.25,559.44,955.64,553.79,959.3,551.85Z" style="fill:#fff"/><path d="M400.269,416.069a63.326,63.326,0,0,1-2.7,12.547c-.97,2.974-2.134,5.534-4.241,10.642-.507,1.229-1.086,2.429-1.652,3.632-.34.724-.718,1.432-1.082,2.145-1.049,2.054-1.985,4.176-3.179,6.141-1.347,2.215-2.965,4.262-4.392,6.43-1.616,2.455-3.109,4.992-4.737,7.438-1.053,1.582-2.3,3.037-3.38,4.6-1.872,2.7-3.609,5.5-5.548,8.149-1.97,2.7-4.208,5.195-6.161,7.9a83.8,83.8,0,0,1-9.455,10.532c-1.854,1.824-3.491,3.881-5.425,5.61-3.391,3.032-6.9,5.934-10.426,8.81q-4,3.261-8.168,6.307c-2.147,1.564-4.457,2.9-6.626,4.439-1.471,1.042-2.772,2.324-4.241,3.368-2.8,1.985-5.656,3.879-8.491,5.807-2.081,1.414-4.137,2.868-6.258,4.219-1.879,1.2-3.957,2.108-5.723,3.443a41.619,41.619,0,0,1-8.327,4.455c-2.734,1.229-5.4,2.624-8.048,4.026-2.267,1.2-4.463,2.53-6.716,3.757-.381.208-.924.1-1.328.283-2.589,1.169-5.1,2.524-7.753,3.537-2.933,1.121-5.983,1.931-8.976,2.9-1.351.435-2.684.922-4.027,1.381-3.862,1.318-7.736,2.6-11.582,3.963-2.586.916-5.126,1.964-7.7,2.9-.315.115-.745-.084-1.122-.138a5.339,5.339,0,0,1,.556-.857c2.917-3.047,5.817-6.11,8.781-9.11,3-3.032,6.083-5.973,9.083-9,1.453-1.466,2.756-3.079,4.2-4.556,2.539-2.6,5.156-5.123,7.688-7.73.844-.87,1.506-1.915,2.288-2.849,4.449-5.309,4.484-5.594,4.978-5.865.236-.13.92-.479.911-.935-.007-.36-.444-.644-.783-.818a3.171,3.171,0,0,0-.988-.212c-2.633-.125-4.319,3.283-7.552,6.776-1.582,1.709-1.577,1.021-5.079,4.445-3.433,3.355-6.773,6.8-10.15,10.217s-6.664,6.919-10.154,10.211c-3.433,3.239-7.032,6.306-10.641,9.352-1.459,1.231-3.226,2.1-4.68,3.332a14.473,14.473,0,0,0-2.554,3.139c-.684,1.043-1.325,1.981-2.739,1.91a2.969,2.969,0,0,0-3,1.818,3.053,3.053,0,0,0,.563,3.575c1.689,2.052,1.74,2.062,4.152,1.242a11.651,11.651,0,0,1,4.017-.424c5.858.175,11.781-.048,17.5,1.465a59.8,59.8,0,0,1,13.642,4.939c1.713.937,3.561,1.627,5.348,2.43,3.588,1.612,7.163,3.256,10.772,4.819,1.484.642,3.042,1.11,4.662,1.7a2.9,2.9,0,0,0,.906.348,1.8,1.8,0,0,0,1.133-.289,1.036,1.036,0,0,0-.028-1.019,28.374,28.374,0,0,0-4.4-4.168c-2.239-1.456-4.922-2.233-7.132-3.724a70.823,70.823,0,0,0-10.864-5.666,78,78,0,0,0-19.27-5.622c-2.074-.342-4.218-.227-6.322-.413a8.147,8.147,0,0,1-1.876-.64,7.45,7.45,0,0,1,1.611-1.042c2.666-.873,5.367-1.642,8.044-2.484,4.077-1.282,8.158-2.553,12.21-3.91,2.325-.778,4.608-1.687,6.89-2.587q6.673-2.63,13.324-5.32c1.86-.75,3.7-1.558,5.546-2.34,2.16-.915,4.352-1.763,6.471-2.765,1.6-.757,3.084-1.759,4.664-2.564,1.136-.578,2.361-.981,3.521-1.517a31.31,31.31,0,0,0,5.635-2.771c2.785-2.062,6.305-2.755,8.889-5.2,1.218-1.152,2.973-1.724,4.457-2.606a12.656,12.656,0,0,0,2.486-1.7c2.488-2.457,5.839-3.606,8.514-5.776,1.2-.975,2.561-1.755,3.822-2.661,3.817-2.743,7.677-5.432,11.411-8.285,2.537-1.938,4.858-4.158,7.338-6.175,1.864-1.515,3.894-2.827,5.726-4.377,2.193-1.855,4.118-4.047,6.4-5.772,4.394-3.321,7.676-7.7,11.355-11.682a53.541,53.541,0,0,0,7.045-9.14c.929-1.585,2.308-2.9,3.366-4.414,2.347-3.369,4.635-6.781,6.918-10.195,1.756-2.624,3.5-5.261,5.193-7.923,2.5-3.912,5.026-7.806,7.394-11.8,1.322-2.226,2.385-4.612,3.5-6.958,1.329-2.808,2.747-5.589,3.826-8.5a82.307,82.307,0,0,0,2.51-8.642c1.17-4.66,2.729-6.03,1.939-8.036-.577-1.467-2.162-3.166-3.593-2.789C401.2,413.442,400.477,414.615,400.269,416.069Z" style="fill:#fff;stroke:#fff;stroke-miterlimit:10;stroke-width:4px"/></svg>